<?xml version="1.0" encoding="UTF-8"?>
<svg version="1.1" xmlns="http://www.w3.org/2000/svg" width="684" height="244">
<path d="M0 0 C225.72 0 451.44 0 684 0 C684 80.52 684 161.04 684 244 C458.28 244 232.56 244 0 244 C0 163.48 0 82.96 0 0 Z " fill="#FEFEFE" transform="translate(0,0)"/>
<path d="M0 0 C0.93070312 0.28875 1.86140625 0.5775 2.8203125 0.875 C9.74534246 3.30635848 15.27128292 7.49446522 21 12 C21.85207031 12.6496875 22.70414062 13.299375 23.58203125 13.96875 C35.94623076 24.35547657 43.6349607 40.220693 46 56 C46.82981729 66.43294835 46.67158879 76.90756543 46.57647705 87.36474609 C46.55772895 90.39653427 46.57268421 93.42779338 46.5875864 96.45957375 C46.59818982 99.40578294 46.58919379 102.35168258 46.57420158 105.29786301 C46.56906472 106.69236709 46.56944616 108.08690404 46.57574654 109.48140335 C46.60278066 119.03749022 46.18203141 125.72292242 39.25 132.8125 C31.73523036 137.87051803 25.32714787 138.42559853 16.5 138.29296875 C15.42371338 138.28872391 14.34742676 138.28447906 13.23852539 138.28010559 C9.8254213 138.26341025 6.41292345 138.22577443 3 138.1875 C0.67578982 138.17244137 -1.64842968 138.15875503 -3.97265625 138.14648438 C-9.64864181 138.11353674 -15.32427757 138.06342902 -21 138 C-21.09953497 132.05929342 -21.17178154 126.11908173 -21.21972656 120.17773438 C-21.23973216 118.16039565 -21.2669456 116.1431141 -21.30175781 114.12597656 C-21.35076577 111.21144427 -21.37307964 108.29768441 -21.390625 105.3828125 C-21.42159271 104.04937302 -21.42159271 104.04937302 -21.45318604 102.68899536 C-21.4562196 94.05255124 -18.87867386 86.04453159 -12.88671875 79.66015625 C-6.11067194 73.69779622 1.23274356 69.99688053 10 68 C10 67.01 10 66.02 10 65 C9.32195312 64.86464844 8.64390625 64.72929688 7.9453125 64.58984375 C-2.32642442 62.21397108 -11.10849938 56.92988459 -17 48 C-19.747067 42.88790844 -21.56803767 37.60851915 -23 32 C-24.975925 32.02964228 -24.975925 32.02964228 -27 33 C-28.12137704 35.70672077 -28.12137704 35.70672077 -28.8125 39 C-31.53917998 48.64906518 -36.32066565 54.41752962 -44.69140625 59.80859375 C-50.77928089 62.95039031 -56.06874183 63.27327496 -62.7734375 63.1953125 C-63.6971817 63.1924826 -64.6209259 63.18965271 -65.57266235 63.18673706 C-68.50690976 63.17559179 -71.4408457 63.15049765 -74.375 63.125 C-76.37108932 63.11496289 -78.36718346 63.10583832 -80.36328125 63.09765625 C-85.24230649 63.07567097 -90.12110054 63.04118017 -95 63 C-95.57641479 45.39933452 -88.66721364 31.52174322 -77.3125 18.25 C-69.08877648 9.59743201 -59.17269675 3.21455277 -48 -1 C-47.21109375 -1.31839844 -46.4221875 -1.63679688 -45.609375 -1.96484375 C-31.04805423 -6.93309313 -14.31084038 -4.67292747 0 0 Z " fill="#5F6FFF" transform="translate(129,47)"/>
<path d="M0 0 C5.63756289 -0.09970521 11.2746 -0.17185967 16.9128418 -0.21972656 C18.82634434 -0.23970419 20.73978692 -0.26689599 22.65307617 -0.30175781 C47.89235568 -0.74975338 47.89235568 -0.74975338 57.4375 8.3125 C63.85079852 14.5123607 68.01951522 21.40201456 68.22705078 30.53662109 C68.22673701 32.28225859 68.21560947 34.02791798 68.1953125 35.7734375 C68.1924826 36.6971817 68.18965271 37.6209259 68.18673706 38.57266235 C68.17559179 41.50690976 68.15049765 44.4408457 68.125 47.375 C68.11496289 49.37108932 68.10583832 51.36718346 68.09765625 53.36328125 C68.07567097 58.24230649 68.04118017 63.12110054 68 68 C60.8834256 68.10176424 53.7670402 68.17161829 46.64990234 68.21972656 C44.2308857 68.23979065 41.81191724 68.26704843 39.39306641 68.30175781 C35.90775632 68.35050341 32.42308984 68.37302164 28.9375 68.390625 C27.86322754 68.41127014 26.78895508 68.43191528 25.68212891 68.45318604 C17.9943034 68.45546216 12.69758201 67.2402156 6.7578125 62.03515625 C6.21898437 61.38417969 5.68015625 60.73320312 5.125 60.0625 C4.57070313 59.41410156 4.01640625 58.76570313 3.4453125 58.09765625 C0.69319595 54.10336817 -0.25097382 50.57122505 -0.22705078 45.75073242 C-0.22689972 44.73005173 -0.22674866 43.70937103 -0.22659302 42.65776062 C-0.21627045 41.5680043 -0.20594788 40.47824799 -0.1953125 39.35546875 C-0.1924826 38.2305452 -0.18965271 37.10562164 -0.18673706 35.9466095 C-0.17555836 32.36013064 -0.15045763 28.77390315 -0.125 25.1875 C-0.11496723 22.75325882 -0.1058419 20.31901372 -0.09765625 17.88476562 C-0.07562656 11.92309158 -0.04217174 5.96156375 0 0 Z " fill="#6171FF" transform="translate(33,117)"/>
<path d="M0 0 C4.62 0 9.24 0 14 0 C17.77613319 7.96693522 20.51492326 16.20016098 23.25 24.5625 C23.71311863 25.96693644 24.17665718 27.37123449 24.640625 28.77539062 C25.76525829 32.18201316 26.88421138 35.59046879 28 39 C28.38857178 37.854104 28.77714355 36.70820801 29.17749023 35.52758789 C30.61511834 31.29057423 32.05659846 27.05487969 33.49926758 22.81958008 C34.12402412 20.98367697 34.74772473 19.14741418 35.37036133 17.31079102 C36.26368603 14.67630044 37.16075657 12.04311184 38.05859375 9.41015625 C38.3377916 8.58411392 38.61698944 7.75807159 38.90464783 6.90699768 C40.88612829 1.11387171 40.88612829 1.11387171 42 0 C46.62 0 51.24 0 56 0 C56 17.82 56 35.64 56 54 C52.7 54 49.4 54 46 54 C46 42.12 46 30.24 46 18 C45.34 18 44.68 18 44 18 C43.76410156 19.2065625 43.52820313 20.413125 43.28515625 21.65625 C41.85062289 28.10722645 39.62712379 34.27358165 37.4375 40.5 C37.02564453 41.69109375 36.61378906 42.8821875 36.18945312 44.109375 C33.13650307 52.86349693 33.13650307 52.86349693 32 54 C29.03 54 26.06 54 23 54 C19.04 42.45 15.08 30.9 11 19 C10.67 30.55 10.34 42.1 10 54 C6.7 54 3.4 54 0 54 C0 36.18 0 18.36 0 0 Z " fill="#040F6F" transform="translate(199,88)"/>
<path d="M0 0 C2.31 0.66 4.62 1.32 7 2 C6.50168276 5.68754757 5.89932357 7.60490662 3 10 C3.495 10.9590625 3.495 10.9590625 4 11.9375 C5.79886495 17.4465239 5.90640245 22.11747182 3.375 27.375 C-2.09940694 33.4256603 -8.26747208 33.60099055 -16 34 C-16.33 35.32 -16.66 36.64 -17 38 C-15.77023437 38.02578125 -14.54046875 38.0515625 -13.2734375 38.078125 C-11.64059068 38.13443006 -10.00777955 38.19177685 -8.375 38.25 C-7.56675781 38.26417969 -6.75851562 38.27835938 -5.92578125 38.29296875 C-0.37442064 38.51863382 2.69337953 39.44703812 7 43 C9.37909051 46.02793338 9.37194606 49.2511091 9.23828125 53.04296875 C8.86276173 56.12715363 8.07070718 57.67045443 6 60 C0.27930315 63.84247961 -4.85344959 64.60410164 -11.625 64.4375 C-12.44484375 64.44458984 -13.2646875 64.45167969 -14.109375 64.45898438 C-20.38648411 64.39338758 -24.74920661 63.19156199 -29.375 58.6875 C-31.41117334 55.31998256 -31.86689922 53.86164198 -31 50 C-28.88139269 47.69213745 -26.53890852 45.8264597 -24 44 C-24.515625 43.46375 -25.03125 42.9275 -25.5625 42.375 C-27 40 -27 40 -26.9375 37 C-25.89196752 33.65429605 -24.65593851 32.22756133 -22 30 C-22.825 29.195625 -23.65 28.39125 -24.5 27.5625 C-27.30196683 24.18577074 -27.68986505 21.49426852 -27.4140625 17.17578125 C-26.45719642 12.1477208 -23.83178883 9.63215951 -19.875 6.625 C-15.48190571 4.34780209 -10.83141373 4.30401745 -6 5 C-3.69921875 6.0234375 -3.69921875 6.0234375 -2 7 C-1.34 4.69 -0.68 2.38 0 0 Z " fill="#091372" transform="translate(562,95)"/>
<path d="M0 0 C3.63 0 7.26 0 11 0 C11.33 6.93 11.66 13.86 12 21 C13.65 19.68 15.3 18.36 17 17 C20.47370107 15.26314947 24.20190812 15.53884888 28 16 C34.10901755 19.11214101 37.85663805 23.52411581 40 30 C40.86432993 38.32168815 40.61405033 45.84190137 36 53 C33.18594621 56.42962805 30.30077805 58.64024198 25.8515625 59.3359375 C20.21611325 59.43480503 17.36195221 58.59861057 13 55 C12.67 54.67 12.34 54.34 12 54 C11.67 55.32 11.34 56.64 11 58 C7.37 58 3.74 58 0 58 C0 38.86 0 19.72 0 0 Z " fill="#0D1874" transform="translate(383,84)"/>
<path d="M0 0 C3.63 0 7.26 0 11 0 C11 19.14 11 38.28 11 58 C7.37 58 3.74 58 0 58 C-0.33 56.68 -0.66 55.36 -1 54 C-1.763125 54.639375 -2.52625 55.27875 -3.3125 55.9375 C-7.10947595 58.85145829 -10.17987148 59.35114409 -14.94140625 59.28125 C-19.44525171 58.66592386 -22.24169942 55.80042839 -25.25 52.625 C-29.69844459 45.95233312 -29.74369964 38.76236499 -29 31 C-27.34550441 24.57942905 -24.43408604 20.69980326 -19 17 C-15.30689628 15.76896543 -11.82305168 15.30081773 -8 16 C-5.69 17.32 -3.38 18.64 -1 20 C-0.67 13.4 -0.34 6.8 0 0 Z " fill="#0D1774" transform="translate(339,84)"/>
<path d="M0 0 C3.3 0 6.6 0 10 0 C10 18.81 10 37.62 10 57 C6.7 57 3.4 57 0 57 C0 55.35 0 53.7 0 52 C-0.47050781 52.34933594 -0.94101562 52.69867188 -1.42578125 53.05859375 C-2.04839844 53.51363281 -2.67101562 53.96867187 -3.3125 54.4375 C-3.92738281 54.88996094 -4.54226563 55.34242188 -5.17578125 55.80859375 C-9.03074799 58.32629151 -12.51426021 58.30411795 -17 58 C-22.41913129 55.98110795 -25.2392321 53.06956976 -28.08618164 48.10644531 C-29.67769229 44.43784957 -29.41013368 40.69683152 -29.4375 36.75 C-29.47037109 35.92886719 -29.50324219 35.10773438 -29.53710938 34.26171875 C-29.59154356 28.01663306 -28.04960488 23.79124145 -24 19 C-19.74236712 15.40928491 -15.70584046 14.35449169 -10.15625 14.6015625 C-6.63664102 15.25192503 -4.68774304 16.6568394 -2 19 C-2 19.66 -2 20.32 -2 21 C-1.34 21 -0.68 21 0 21 C0 14.07 0 7.14 0 0 Z " fill="#051070" transform="translate(514,85)"/>
<path d="M0 0 C4.64221531 2.71188237 6.49758778 5.57269751 8.6875 10.5 C8.6875 14.46 8.6875 18.42 8.6875 22.5 C-0.2225 22.5 -9.1325 22.5 -18.3125 22.5 C-16.93162936 28.2257206 -16.93162936 28.2257206 -14.25 30.4375 C-10.17580568 31.91114475 -6.46549664 31.72878927 -2.3125 30.5 C-0.55582596 29.03673926 -0.55582596 29.03673926 0.6875 27.5 C5.4375 29.375 5.4375 29.375 7.6875 30.5 C7.21186589 34.78070699 4.88438467 36.8004085 1.6875 39.5 C-3.90171685 42.22961753 -10.60486809 42.63485777 -16.55859375 40.8125 C-22.13287585 38.28352513 -25.73400261 34.76815657 -28.421875 29.203125 C-30.48293268 22.94763414 -30.46681802 15.14629087 -27.8125 9.0625 C-22.04865274 -0.68852475 -10.38303854 -4.48089306 0 0 Z " fill="#0A1573" transform="translate(604.3125,101.5)"/>
<path d="M0 0 C3.10322009 2.18348744 5.04830864 4.85833602 6.7265625 8.21484375 C6.7265625 12.50484375 6.7265625 16.79484375 6.7265625 21.21484375 C-2.1834375 21.21484375 -11.0934375 21.21484375 -20.2734375 21.21484375 C-17.44010417 28.88151042 -17.44010417 28.88151042 -14.2734375 30.21484375 C-8.1500091 30.58791375 -8.1500091 30.58791375 -2.2734375 29.21484375 C-1.9434375 28.22484375 -1.6134375 27.23484375 -1.2734375 26.21484375 C2.52245116 26.75711356 4.19868243 28.41611938 6.7265625 31.21484375 C3.46101663 35.53688976 1.00510294 38.4221319 -4.2734375 40.21484375 C-10.69060475 40.99137491 -16.58045341 40.39173219 -22.2734375 37.21484375 C-27.18428659 33.17703449 -29.97632878 28.94125314 -30.671875 22.55859375 C-30.66414063 21.29015625 -30.65640625 20.02171875 -30.6484375 18.71484375 C-30.65617187 17.44640625 -30.66390625 16.17796875 -30.671875 14.87109375 C-30.07432089 9.38765607 -28.16264467 5.47654377 -23.8984375 1.96484375 C-16.4482273 -3.96428186 -8.37310857 -4.68693926 0 0 Z " fill="#081372" transform="translate(296.2734375,102.78515625)"/>
<path d="M0 0 C3.3 0 6.6 0 10 0 C10 1.98 10 3.96 10 6 C10.66 6 11.32 6 12 6 C12.433125 5.071875 12.433125 5.071875 12.875 4.125 C14 2 14 2 16 0 C18.1640625 -0.1953125 18.1640625 -0.1953125 20.625 -0.125 C21.85089844 -0.09792969 21.85089844 -0.09792969 23.1015625 -0.0703125 C24.04128906 -0.03550781 24.04128906 -0.03550781 25 0 C26.25541557 3.76624671 25.37061958 5.37188934 24 9 C22.046875 9.09765625 20.09375 9.1953125 18.140625 9.29296875 C14.92534689 10.35494929 13.86132754 12.22232659 12 15 C11.36639024 17.9817875 11.36639024 17.9817875 11.390625 21.17578125 C11.35839844 22.33271484 11.32617188 23.48964844 11.29296875 24.68164062 C11.27169922 26.47891602 11.27169922 26.47891602 11.25 28.3125 C11.22035156 29.53001953 11.19070313 30.74753906 11.16015625 32.00195312 C11.08958177 35.00136833 11.03682136 38.0000117 11 41 C7.37 41 3.74 41 0 41 C0 27.47 0 13.94 0 0 Z " fill="#0C1774" transform="translate(432,101)"/>
<path d="M0 0 C3.63 0 7.26 0 11 0 C11 13.53 11 27.06 11 41 C7.37 41 3.74 41 0 41 C0 27.47 0 13.94 0 0 Z " fill="#121C77" transform="translate(464,101)"/>
<path d="M0 0 C3.63 0 7.26 0 11 0 C11 13.53 11 27.06 11 41 C7.37 41 3.74 41 0 41 C0 27.47 0 13.94 0 0 Z " fill="#121C77" transform="translate(361,101)"/>
<path d="M0 0 C2.75992121 2.09373333 3.61401529 4.13909129 4.8125 7.375 C5.50407496 13.50037825 4.56476588 18.34269693 0.8125 23.375 C-2.78014452 24.57254817 -5.41467474 24.70594958 -9.1875 24.375 C-12.09467073 22.15636971 -13.02731643 20.85555071 -14.1875 17.375 C-15.09602675 6.91949547 -15.09602675 6.91949547 -12.3125 2.1875 C-8.43652076 -1.11848229 -4.91367232 -1.40390638 0 0 Z " fill="#F6F6FA" transform="translate(509.1875,109.625)"/>
<path d="M0 0 C2.69514301 0.77702712 4.4741646 2.08957104 6.08984375 4.37890625 C7.9583098 9.18353323 7.84732852 14.54512486 6.9375 19.55859375 C5.12382826 22.25499326 3.855068 24.09980975 0.9375 25.55859375 C-5.30509681 26.13661197 -5.30509681 26.13661197 -8.4375 23.74609375 C-12.16021868 18.73474168 -11.7391364 12.53030337 -11.0625 6.55859375 C-9.05207963 1.45738693 -5.32699813 -0.49436157 0 0 Z " fill="#FAFAFC" transform="translate(332.0625,108.44140625)"/>
<path d="M0 0 C3.97245401 0.70936679 5.67231707 1.79731707 8.5 4.625 C9.83827901 7.30155801 9.70578556 9.44934052 9.75 12.4375 C9.77578125 13.47519531 9.8015625 14.51289062 9.828125 15.58203125 C9.45408344 19.05082145 8.57568054 20.84610993 6.5 23.625 C2.73500419 26.1349972 0.95706394 26.23976744 -3.5 25.625 C-7.28577488 22.80580594 -8.25512954 21.19575441 -8.98046875 16.54296875 C-9.38743017 6.9188812 -9.38743017 6.9188812 -6.4375 2.8125 C-3.5 0.625 -3.5 0.625 0 0 Z " fill="#FAFAFC" transform="translate(402.5,108.375)"/>
<path d="M0 0 C2.79173055 -0.02690104 5.58320348 -0.04679053 8.375 -0.0625 C9.56609375 -0.07506836 9.56609375 -0.07506836 10.78125 -0.08789062 C16.7734375 -0.11328125 16.7734375 -0.11328125 19 1 C19.3125 3.3125 19.3125 3.3125 19 6 C15.88731255 9.11268745 12.65183261 9.26847596 8.4375 9.4375 C4.87318418 9.33167686 3.33158447 9.20347229 0.25 7.3125 C-1.32800942 4.39318258 -0.76972149 3.13609498 0 0 Z " fill="#F4F4F8" transform="translate(542,143)"/>
<path d="M0 0 C2.375 1.0625 2.375 1.0625 4 3 C4.46913089 7.37855495 4.46943529 9.29584707 2 13 C-1.3125 14 -1.3125 14 -5 14 C-8.14799562 11.72272657 -9.72101232 10.27094386 -10.5625 6.4375 C-9.22528968 0.64292194 -5.58233986 -0.81409123 0 0 Z " fill="#6474FF" transform="translate(171,43)"/>
<path d="M0 0 C0.70125 0.00515625 1.4025 0.0103125 2.125 0.015625 C2.82625 0.01046875 3.5275 0.0053125 4.25 0 C6.125 0.265625 6.125 0.265625 8.125 2.265625 C8.68141422 9.27644417 8.68141422 9.27644417 7 12.265625 C4.22684376 13.74464166 2.21315875 13.65164484 -0.875 13.265625 C-2.75 12.265625 -2.75 12.265625 -3.875 10.265625 C-4.23595911 7.46389473 -4.10216238 5.12787098 -3.875 2.265625 C-1.875 0.265625 -1.875 0.265625 0 0 Z " fill="#F5F6F9" transform="translate(548.875,107.734375)"/>
<path d="M0 0 C3.4375 0.8125 3.4375 0.8125 5.4375 3.8125 C5.8125 6.3125 5.8125 6.3125 5.4375 8.8125 C3.17670102 11.3341604 1.73284867 11.77030733 -1.625 12.25 C-4.5625 11.8125 -4.5625 11.8125 -6.5 10.1875 C-7.93754343 6.97416762 -7.57623739 5.14335144 -6.5625 1.8125 C-3.5625 -0.1875 -3.5625 -0.1875 0 0 Z " fill="#101A76" transform="translate(470.5625,84.1875)"/>
<path d="M0 0 C3.4375 0.8125 3.4375 0.8125 5.4375 3.8125 C5.8125 6.3125 5.8125 6.3125 5.4375 8.8125 C3.17670102 11.3341604 1.73284867 11.77030733 -1.625 12.25 C-4.5625 11.8125 -4.5625 11.8125 -6.5 10.1875 C-7.93754343 6.97416762 -7.57623739 5.14335144 -6.5625 1.8125 C-3.5625 -0.1875 -3.5625 -0.1875 0 0 Z " fill="#101A76" transform="translate(367.5625,84.1875)"/>
<path d="M0 0 C2.875 2.25 2.875 2.25 5 5 C5 6.32 5 7.64 5 9 C-0.61 9 -6.22 9 -12 9 C-11 4 -11 4 -8.8125 1.6875 C-5.43721126 -0.33767324 -3.86719695 -0.72509943 0 0 Z " fill="#F3F3F8" transform="translate(598,108)"/>
<path d="M0 0 C2.875 1.6875 2.875 1.6875 5 4 C5 5.65 5 7.3 5 9 C-0.28 9 -5.56 9 -11 9 C-10 3 -10 3 -8.3125 1.125 C-5.24698338 -0.36633241 -3.37622756 -0.48231822 0 0 Z " fill="#F5F5F9" transform="translate(288,108)"/>
<path d="M0 0 C0.66 0 1.32 0 2 0 C2 11.88 2 23.76 2 36 C1.67 36 1.34 36 1 36 C0.97494385 35.10692139 0.9498877 34.21384277 0.92407227 33.29370117 C0.82889814 29.97814546 0.72966717 26.66276271 0.62768555 23.34741211 C0.58439207 21.91288997 0.54271301 20.47831816 0.50268555 19.04370117 C0.44484733 16.9808048 0.38119247 14.91815717 0.31640625 12.85546875 C0.26141968 10.99378052 0.26141968 10.99378052 0.20532227 9.09448242 C0.12855879 5.96446653 0.12855879 5.96446653 -1 3 C-0.67 2.01 -0.34 1.02 0 0 Z " fill="#C2C5DC" transform="translate(243,106)"/>
</svg>
